<?xml version="1.0" encoding="utf-8"?>
<!-- Generator: Adobe Illustrator 21.1.0, SVG Export Plug-In . SVG Version: 6.00 Build 0)  -->
<svg version="1.1" xmlns="http://www.w3.org/2000/svg" xmlns:xlink="http://www.w3.org/1999/xlink" x="0px" y="0px"
	 viewBox="0 0 72 72" style="enable-background:new 0 0 72 72;" xml:space="preserve">
<style type="text/css">
	.st0{display:none;}
	.st1{fill:#FFFFFF;stroke:#454E5D;stroke-width:1.5;stroke-linecap:round;stroke-linejoin:round;stroke-miterlimit:10;}
	.st2{fill:#3892D0;stroke:#454E5D;stroke-miterlimit:10;}
	.st3{fill:#EA1587;stroke:#454E5D;stroke-linecap:round;stroke-linejoin:round;stroke-miterlimit:10;}
	.st4{fill:#FBEE1E;stroke:#454E5D;stroke-linecap:round;stroke-linejoin:round;stroke-miterlimit:10;}
	.st5{fill:#FBEE1E;stroke:#454E5D;stroke-width:1.25;stroke-linecap:round;stroke-linejoin:round;stroke-miterlimit:10;}
	.st6{fill:#029F4A;stroke:#454E5D;stroke-width:0.5;stroke-linecap:round;stroke-linejoin:round;stroke-miterlimit:10;}
	.st7{fill:#FFFFFF;}
	.st8{fill:#E53128;stroke:#454E5D;stroke-linecap:round;stroke-linejoin:round;stroke-miterlimit:10;}
	.st9{fill:#3892D0;}
	.st10{fill:#454E5D;}
	.st11{fill:#029F4A;stroke:#454E5D;stroke-linecap:round;stroke-linejoin:round;stroke-miterlimit:10;}
	.st12{fill:#C2C4C5;stroke:#454E5D;stroke-linecap:round;stroke-linejoin:round;stroke-miterlimit:10;}
	.st13{fill:#FBEE1E;}
	.st14{fill:none;stroke:#FFFFFF;stroke-width:2;stroke-linecap:round;stroke-linejoin:round;stroke-miterlimit:10;}
	.st15{fill:#939598;stroke:#454E5D;stroke-linecap:round;stroke-linejoin:round;stroke-miterlimit:10;}
	.st16{fill:#3892D0;stroke:#454E5D;stroke-width:0.75;stroke-miterlimit:10;}
	.st17{fill:#D1D3D4;stroke:#454E5D;stroke-width:0.75;stroke-linecap:round;stroke-linejoin:round;stroke-miterlimit:10;}
	.st18{fill:#FFFFFF;stroke:#454E5D;stroke-width:0.5;stroke-linecap:round;stroke-linejoin:round;stroke-miterlimit:10;}
	.st19{fill:#58595B;}
	.st20{fill:#3892D0;stroke:#454E5D;stroke-linecap:round;stroke-linejoin:round;stroke-miterlimit:10;}
	.st21{fill:#029F4A;stroke:#454E5D;stroke-miterlimit:10;}
	.st22{fill:#6D6E71;stroke:#454E5D;stroke-linecap:round;stroke-linejoin:round;stroke-miterlimit:10;}
	.st23{fill:#FFFFFF;stroke:#454E5D;stroke-width:0.75;stroke-linecap:round;stroke-linejoin:round;stroke-miterlimit:10;}
	.st24{display:inline;}
	.st25{fill:#FFFFFF;stroke:#FFFFFF;stroke-width:1.2777;stroke-linecap:round;stroke-linejoin:round;stroke-miterlimit:10;}
	.st26{fill:none;stroke:#FFFFFF;stroke-width:1.2122;stroke-linecap:round;stroke-linejoin:round;stroke-miterlimit:10;}
</style>
<g id="Reference" class="st0">
</g>
<g id="Artwork">
	<g>
		<g>
			<path class="st1" d="M33.3,60.2L12.1,39c-2-2-2-5.1,0-7.1l21.2-21.2c2-2,5.1-2,7.1,0l21.2,21.2c2,2,2,5.1,0,7.1L40.4,60.2
				C38.4,62.2,35.3,62.2,33.3,60.2z"/>
			<path class="st8" d="M34.7,57.8L14.6,37.6c-1.2-1.2-1.2-3.1,0-4.2l20.2-20.2c1.2-1.2,3.1-1.2,4.2,0l20.2,20.2
				c1.2,1.2,1.2,3.1,0,4.2L39,57.8C37.8,58.9,35.9,58.9,34.7,57.8z"/>
		</g>
		<g>
			<path class="st15" d="M43.2,36l-11.8-2c-2.7-0.5-4.6-3-4.1-5.8l3.2-18.7c0.5-2.7,3-4.6,5.8-4.1l11.8,2c2.7,0.5,4.6,3,4.1,5.8
				L49,31.9C48.5,34.6,45.9,36.4,43.2,36z"/>
			<path class="st15" d="M36.7,65.8l-11.8-2c-2.7-0.5-4.6-3-4.1-5.8l3.2-18.7c0.5-2.7,3-4.6,5.8-4.1l11.8,2c2.7,0.5,4.6,3,4.1,5.8
				l-3.2,18.7C42,64.4,39.4,66.2,36.7,65.8z"/>
			<path class="st15" d="M41.5,37.9L30.8,36c-0.5-0.1-0.9-0.6-0.8-1.2l0.1-0.5c0.1-0.5,0.6-0.9,1.2-0.8L42,35.4
				c0.5,0.1,0.9,0.6,0.8,1.2L42.7,37C42.6,37.6,42.1,37.9,41.5,37.9z"/>
			<path class="st16" d="M43.9,31.5l-11.8-2c-1.6-0.3-2.7-1.8-2.5-3.5l2.7-15.9c0.3-1.6,1.8-2.7,3.5-2.5l11.8,2
				c1.6,0.3,2.7,1.8,2.5,3.5l-2.7,15.9C47.1,30.7,45.6,31.8,43.9,31.5z"/>
			<path class="st17" d="M37.4,62.3l-12.1-2.1c-1.6-0.3-2.7-1.8-2.5-3.5l2.8-16.5c0.3-1.6,1.8-2.7,3.5-2.5l12.1,2.1
				c1.6,0.3,2.7,1.8,2.5,3.5l-2.8,16.5C40.6,61.5,39,62.6,37.4,62.3z"/>
			<g>
				<line class="st18" x1="25.5" y1="42.3" x2="43.3" y2="45.3"/>
				<line class="st18" x1="24.5" y1="47.8" x2="42.3" y2="50.8"/>
				<line class="st18" x1="23.4" y1="53.7" x2="41.2" y2="56.7"/>
				<line class="st18" x1="28.3" y1="60.7" x2="32.1" y2="38.5"/>
				<line class="st18" x1="34.4" y1="61.5" x2="38.2" y2="39.3"/>
			</g>
			<g>
				<g>
					<path class="st19" d="M29.1,41.3l0.3-1.4l-0.2,0c-0.1,0-0.1,0-0.1-0.1c0,0,0-0.1,0-0.1c0-0.1,0-0.1,0.1-0.1c0,0,0.1,0,0.1,0
						l0.4,0.1c0.1,0,0.1,0,0.1,0.1c0,0,0,0.1,0,0.1l-0.3,1.6c0,0.1,0,0.1-0.1,0.1c0,0-0.1,0-0.2,0c-0.1,0-0.1,0-0.1-0.1
						C29.1,41.4,29.1,41.4,29.1,41.3z"/>
				</g>
				<g>
					<path class="st19" d="M34.5,42l0.5,0.1c0.1,0,0.1,0,0.1,0.1s0,0.1,0,0.1c0,0.1,0,0.1-0.1,0.1s-0.1,0-0.2,0l-0.9-0.2
						c-0.1,0-0.1,0-0.1-0.1c0,0,0-0.1,0-0.1c0,0,0-0.1,0.1-0.1c0.1-0.1,0.1-0.1,0.2-0.2c0.1-0.1,0.1-0.1,0.2-0.2
						c0.1-0.1,0.1-0.1,0.2-0.2c0.1-0.1,0.1-0.1,0.2-0.2c0.1-0.1,0.1-0.2,0.1-0.2c0-0.1,0-0.1,0-0.2c0,0-0.1-0.1-0.1-0.1
						c-0.1,0-0.1,0-0.2,0c0,0-0.1,0.1-0.1,0.2c0,0.1-0.1,0.1-0.1,0.2c0,0-0.1,0-0.1,0c-0.1,0-0.1,0-0.1-0.1c0,0,0-0.1,0-0.2
						c0-0.1,0.1-0.2,0.1-0.3c0.1-0.1,0.2-0.1,0.3-0.2s0.2,0,0.3,0c0.1,0,0.2,0.1,0.3,0.1c0.1,0.1,0.1,0.1,0.2,0.2c0,0.1,0,0.2,0,0.3
						c0,0.1-0.1,0.2-0.1,0.3c-0.1,0.1-0.1,0.2-0.2,0.2c-0.1,0.1-0.2,0.2-0.3,0.2C34.7,41.9,34.6,41.9,34.5,42z"/>
				</g>
				<g>
					<path class="st19" d="M41,41.6c0.1,0,0.2,0.1,0.3,0.1c0.1,0.1,0.1,0.1,0.2,0.2c0,0.1,0,0.2,0,0.2c0,0.1-0.1,0.1-0.1,0.2
						c-0.1,0.1-0.1,0.1-0.2,0.1c0.1,0.1,0.2,0.1,0.2,0.2c0,0.1,0.1,0.2,0,0.3c0,0.1-0.1,0.2-0.1,0.3c-0.1,0.1-0.2,0.1-0.3,0.2
						c-0.1,0-0.2,0-0.4,0c-0.1,0-0.2-0.1-0.3-0.1c-0.1-0.1-0.2-0.1-0.2-0.2c0-0.1-0.1-0.2,0-0.2c0,0,0-0.1,0.1-0.1
						c0.1,0,0.1,0,0.2,0c0,0,0.1,0.1,0.1,0.1c0,0.1,0.1,0.1,0.1,0.2c0,0,0.1,0.1,0.2,0.1c0,0,0.1,0,0.1,0c0,0,0.1,0,0.1-0.1
						c0,0,0.1-0.1,0.1-0.1c0-0.1,0-0.1,0-0.2c0,0-0.1-0.1-0.2-0.1c-0.1,0-0.1,0-0.2-0.1c0,0,0-0.1,0-0.1c0-0.1,0-0.1,0.1-0.1
						c0,0,0.1,0,0.2,0c0.1,0,0.1,0,0.2,0c0,0,0.1-0.1,0.1-0.1c0,0,0-0.1,0-0.1c0,0-0.1-0.1-0.1-0.1c-0.1,0-0.1,0-0.1,0
						c0,0-0.1,0-0.1,0.1c0,0-0.1,0.1-0.1,0.1c0,0-0.1,0-0.1,0c-0.1,0-0.1,0-0.1-0.1c0,0,0-0.1,0-0.1c0,0,0-0.1,0.1-0.1
						c0,0,0.1-0.1,0.2-0.1c0.1,0,0.1,0,0.2-0.1C40.9,41.6,40.9,41.6,41,41.6z"/>
				</g>
				<g>
					<path class="st19" d="M28.1,46.3l-0.7-0.1c-0.1,0-0.1,0-0.1-0.1c0,0,0-0.1,0-0.1c0,0,0-0.1,0.1-0.1l0.8-1
						c0-0.1,0.1-0.1,0.1-0.1s0.1,0,0.2,0c0.1,0,0.1,0,0.1,0.1c0,0,0.1,0.1,0.1,0.1c0,0.1,0,0.1,0,0.2L28.6,46l0,0c0,0,0.1,0,0.1,0
						c0,0,0,0,0.1,0.1c0,0,0,0.1,0,0.1c0,0,0,0.1,0,0.1c0,0,0,0-0.1,0.1c0,0-0.1,0-0.1,0l0,0l0,0.2c0,0.1,0,0.1-0.1,0.2
						c0,0-0.1,0-0.2,0c-0.1,0-0.1,0-0.1-0.1c0,0,0-0.1,0-0.2L28.1,46.3z M28.2,46l0.1-0.8l0,0l-0.5,0.7L28.2,46z"/>
				</g>
				<g>
					<path class="st19" d="M33.9,46.1l-0.1,0.3c0.1,0,0.2,0,0.2,0c0.1,0,0.2,0.1,0.3,0.1c0.1,0.1,0.1,0.2,0.2,0.3c0,0.1,0,0.2,0,0.3
						c0,0.1-0.1,0.2-0.1,0.3c0,0.1-0.1,0.2-0.2,0.2c-0.1,0.1-0.2,0.1-0.3,0.1c-0.1,0-0.2,0-0.3,0c-0.1,0-0.2,0-0.2-0.1
						c-0.1,0-0.2-0.1-0.2-0.2C33,47.4,33,47.3,33,47.3c0,0,0-0.1,0-0.1c0,0,0,0,0.1-0.1c0,0,0.1,0,0.1,0c0,0,0.1,0,0.1,0.1
						c0.1,0,0.1,0.1,0.1,0.1s0.1,0,0.1,0.1c0.1,0,0.2,0,0.2-0.1s0.1-0.1,0.1-0.2c0-0.1,0-0.1,0-0.1c0,0,0-0.1-0.1-0.1
						c0,0-0.1-0.1-0.1-0.1c-0.1,0-0.1,0-0.2,0c-0.1,0-0.1,0-0.2,0c0,0-0.1,0-0.1-0.1c0,0,0-0.1,0-0.1c0,0,0,0,0,0c0,0,0,0,0-0.1
						l0.2-0.6c0-0.1,0-0.1,0.1-0.1c0,0,0-0.1,0.1-0.1s0,0,0.1,0c0,0,0.1,0,0.1,0l0.7,0.1c0.1,0,0.1,0,0.1,0.1c0,0,0,0.1,0,0.1
						c0,0.1,0,0.1-0.1,0.2c0,0-0.1,0-0.1,0L33.9,46.1z"/>
				</g>
				<g>
					<path class="st19" d="M39.5,48.8c-0.1,0-0.3-0.1-0.3-0.2c-0.1-0.1-0.2-0.2-0.2-0.3s0-0.2,0-0.4c0-0.1,0.1-0.3,0.2-0.4
						c0.1-0.1,0.2-0.3,0.4-0.4c0.1-0.1,0.3-0.2,0.4-0.3c0,0,0,0,0.1,0c0,0,0.1,0,0.1,0c0,0,0.1,0,0.1,0c0,0,0,0.1,0.1,0.1
						c0,0,0,0.1,0,0.1c0,0,0,0.1-0.1,0.1c0,0-0.1,0.1-0.2,0.2s-0.2,0.2-0.2,0.2l0,0c0.1,0,0.1,0,0.2,0c0.1,0,0.2,0,0.2,0.1
						c0.1,0,0.1,0.1,0.2,0.2c0,0.1,0.1,0.1,0.1,0.2c0,0.1,0,0.2,0,0.2c0,0.1-0.1,0.2-0.2,0.3c-0.1,0.1-0.2,0.2-0.3,0.2
						S39.6,48.8,39.5,48.8z M39.6,47.8c-0.1,0-0.1,0-0.1,0c0,0-0.1,0-0.1,0.1c0,0-0.1,0.1-0.1,0.1c0,0.1,0,0.2,0,0.2
						c0,0.1,0.1,0.1,0.2,0.1c0.1,0,0.1,0,0.2,0c0.1,0,0.1-0.1,0.1-0.2c0,0,0-0.1,0-0.1c0,0,0-0.1-0.1-0.1S39.7,47.8,39.6,47.8z"/>
				</g>
				<g>
					<path class="st19" d="M26.7,52.2l0.9-1.2l-0.7-0.1c-0.1,0-0.1,0-0.1-0.1s0-0.1,0-0.1c0-0.1,0-0.1,0.1-0.1c0,0,0.1,0,0.2,0
						l1,0.2c0.1,0,0.1,0,0.1,0.1c0,0.1,0,0.1,0,0.1c0,0,0,0,0,0.1c0,0,0,0.1-0.1,0.1l-0.9,1.3c0,0.1-0.1,0.1-0.1,0.1c0,0,0,0-0.1,0
						c0,0-0.1,0-0.1,0c-0.1,0-0.1,0-0.2-0.1C26.6,52.4,26.6,52.3,26.7,52.2C26.6,52.2,26.6,52.2,26.7,52.2z"/>
				</g>
				<g>
					<path class="st19" d="M32.8,53.6c-0.1,0-0.2-0.1-0.3-0.1c-0.1-0.1-0.2-0.2-0.2-0.3c0-0.1-0.1-0.2,0-0.3c0-0.1,0-0.1,0.1-0.2
						s0.1-0.1,0.1-0.1c0.1,0,0.1-0.1,0.2-0.1c-0.1-0.1-0.2-0.3-0.1-0.4c0-0.1,0-0.1,0.1-0.2s0.1-0.1,0.2-0.1c0.1,0,0.1-0.1,0.2-0.1
						c0.1,0,0.2,0,0.2,0c0.1,0,0.2,0,0.2,0.1c0.1,0,0.1,0.1,0.2,0.1c0,0.1,0.1,0.1,0.1,0.2c0,0.1,0,0.1,0,0.2s0,0.2-0.1,0.2
						c0,0.1-0.1,0.1-0.2,0.1c0.1,0.1,0.1,0.1,0.2,0.2s0,0.2,0,0.3c0,0.1-0.1,0.2-0.2,0.3c-0.1,0.1-0.2,0.1-0.3,0.2
						S32.9,53.6,32.8,53.6z M33,52.7c-0.1,0-0.1,0-0.2,0s-0.1,0.1-0.1,0.2c0,0.1,0,0.1,0,0.2c0,0.1,0.1,0.1,0.2,0.1
						c0.1,0,0.1,0,0.2,0c0.1,0,0.1-0.1,0.1-0.2c0-0.1,0-0.2,0-0.2C33.1,52.7,33.1,52.7,33,52.7z M33.1,51.9c-0.1,0-0.1,0-0.2,0
						c0,0-0.1,0.1-0.1,0.1s0,0.1,0,0.2c0,0,0.1,0.1,0.1,0.1c0.1,0,0.1,0,0.2,0c0,0,0.1-0.1,0.1-0.1c0-0.1,0-0.1,0-0.2
						C33.2,52,33.2,51.9,33.1,51.9z"/>
				</g>
				<g>
					<path class="st19" d="M39.1,52.4c0.1,0,0.2,0.1,0.3,0.2c0.1,0.1,0.2,0.2,0.2,0.3c0,0.1,0,0.2,0,0.4c0,0.1-0.1,0.3-0.2,0.4
						c-0.1,0.1-0.2,0.3-0.4,0.4c-0.1,0.1-0.3,0.2-0.4,0.3c0,0-0.1,0-0.1,0c0,0,0,0-0.1,0c0,0-0.1,0-0.1-0.1c0-0.1,0-0.1,0-0.1
						c0,0,0,0,0,0c0,0,0,0,0.1-0.1c0,0,0.1-0.1,0.2-0.2c0.1-0.1,0.2-0.2,0.2-0.2l0,0c-0.1,0-0.1,0-0.2,0c-0.1,0-0.2-0.1-0.3-0.1
						s-0.1-0.2-0.2-0.3c0-0.1,0-0.2,0-0.3c0-0.1,0.1-0.2,0.2-0.3c0.1-0.1,0.2-0.2,0.3-0.2C38.9,52.4,39,52.4,39.1,52.4z M39,53.4
						c0.1,0,0.1,0,0.2,0c0.1,0,0.1-0.1,0.1-0.2c0-0.1,0-0.2,0-0.2c0-0.1-0.1-0.1-0.2-0.1c-0.1,0-0.1,0-0.2,0c-0.1,0-0.1,0.1-0.1,0.2
						c0,0.1,0,0.1,0,0.2S38.9,53.4,39,53.4z"/>
				</g>
				<g>
					<path class="st19" d="M26.4,56.3C26.4,56.3,26.5,56.3,26.4,56.3c0.1,0.1,0.1,0.1,0.1,0.2c0,0,0,0,0,0.1c0,0,0,0.1,0,0.1
						c0,0,0.1,0,0.1,0c0,0,0,0,0.1,0c0,0,0,0,0.1,0c0,0,0.1,0,0.1,0.1c0,0,0,0.1,0,0.1c0,0,0,0.1,0,0.1c0,0-0.1,0-0.1,0
						c-0.1,0-0.1,0-0.1,0c0,0,0.1,0,0.1,0.1c0,0,0.1,0,0.1,0.1c0,0,0,0,0,0.1c0,0,0,0.1-0.1,0.1c0,0-0.1,0-0.1,0c0,0,0,0-0.1,0
						c0,0,0,0-0.1-0.1c0,0,0,0-0.1-0.1c0,0,0,0.1,0,0.1c0,0,0,0.1,0,0.1c0,0,0,0.1-0.1,0.1c0,0-0.1,0-0.1,0c0,0-0.1,0-0.1,0
						c0,0,0-0.1,0-0.1c0,0,0,0,0,0c0,0,0,0,0,0c0,0,0,0,0,0c0,0,0,0,0,0c0,0-0.1,0-0.1,0c0,0-0.1,0-0.1,0c0,0,0,0-0.1,0
						c0,0-0.1,0-0.1-0.1c0,0,0-0.1,0-0.1c0,0,0-0.1,0-0.1c0,0,0.1,0,0.1,0c0,0,0.1,0,0.1,0c0,0,0,0-0.1-0.1c0,0-0.1-0.1-0.1-0.1
						s0,0,0-0.1c0,0,0-0.1,0.1-0.1c0,0,0.1,0,0.1,0c0,0,0,0,0.1,0c0,0,0,0,0.1,0.1c0,0,0,0,0.1,0.1c0,0,0,0,0-0.1s0,0,0,0
						c0,0,0,0,0-0.1c0,0,0,0,0,0c0,0,0-0.1,0.1-0.1C26.3,56.3,26.4,56.3,26.4,56.3z"/>
				</g>
				<g>
					<path class="st19" d="M31.7,59.3c-0.2,0-0.3-0.1-0.4-0.2c-0.1-0.1-0.1-0.3-0.2-0.4c0-0.2,0-0.3,0-0.5s0.1-0.3,0.2-0.5
						s0.2-0.3,0.3-0.3s0.3-0.1,0.5-0.1c0.1,0,0.2,0.1,0.3,0.2c0.1,0.1,0.1,0.2,0.2,0.3c0,0.1,0.1,0.2,0.1,0.3s0,0.2,0,0.4
						c0,0.1-0.1,0.2-0.1,0.3c0,0.1-0.1,0.2-0.2,0.3c-0.1,0.1-0.2,0.2-0.3,0.2C32,59.3,31.9,59.3,31.7,59.3z M31.8,58.9
						c0.1,0,0.2,0,0.2-0.1c0.1-0.1,0.1-0.1,0.1-0.2c0-0.1,0.1-0.2,0.1-0.3c0-0.2,0-0.3,0-0.5c0-0.1-0.1-0.2-0.2-0.2
						c-0.1,0-0.2,0-0.3,0.1c-0.1,0.1-0.1,0.3-0.1,0.4c0,0.2,0,0.3,0,0.4C31.6,58.8,31.7,58.9,31.8,58.9z"/>
				</g>
				<g>
					<path class="st19" d="M37.4,59.5l0.1-0.3l-0.2,0c0,0-0.1,0-0.1-0.1c0,0,0-0.1,0-0.1s0-0.1,0.1-0.1c0,0,0.1,0,0.1,0l0.3,0.1
						l0.1-0.4c0,0,0-0.1,0.1-0.1c0,0,0.1,0,0.1,0c0,0,0.1,0,0.1,0c0,0,0,0.1,0,0.1c0,0,0,0,0,0.1L37.9,59l0.3,0l0.1-0.4
						c0,0,0-0.1,0.1-0.1c0,0,0.1,0,0.1,0c0,0,0.1,0,0.1,0s0,0.1,0,0.1c0,0,0,0,0,0.1l-0.1,0.4l0.2,0c0,0,0.1,0,0.1,0.1
						c0,0,0,0.1,0,0.1s0,0.1-0.1,0.1c0,0-0.1,0-0.1,0l-0.3-0.1l-0.1,0.3l0.2,0c0,0,0.1,0,0.1,0.1c0,0,0,0.1,0,0.1c0,0,0,0.1-0.1,0.1
						c0,0-0.1,0-0.1,0l-0.3-0.1L38,60.4c0,0,0,0.1-0.1,0.1c0,0-0.1,0-0.1,0c0,0-0.1,0-0.1,0c0,0,0-0.1,0-0.1c0,0,0,0,0-0.1l0.1-0.4
						l-0.3,0l-0.1,0.4c0,0,0,0.1-0.1,0.1c0,0-0.1,0-0.1,0c0,0-0.1,0-0.1,0c0,0,0-0.1,0-0.1c0,0,0,0,0-0.1l0.1-0.4l-0.2,0
						c0,0-0.1,0-0.1-0.1c0,0,0-0.1,0-0.1c0,0,0-0.1,0-0.1c0,0,0.1,0,0.1,0L37.4,59.5z M37.8,59.3l-0.1,0.3l0.3,0l0.1-0.3L37.8,59.3z
						"/>
				</g>
			</g>
		</g>
		<g>
			<polygon class="st3" points="8.4,25.2 8.4,28.8 10.7,29.7 10,30.3 10,34 22.7,31.5 22.9,27.8 13.4,24.2 			"/>
			<polygon class="st20" points="8.4,25.2 14.4,16.9 17.6,18.9 19.3,16.6 22.9,27.8 10,30.3 11.9,27.1 			"/>
		</g>
	</g>
</g>
</svg>
