<?xml version="1.0" encoding="utf-8"?>
<!-- Generator: Adobe Illustrator 21.1.0, SVG Export Plug-In . SVG Version: 6.00 Build 0)  -->
<svg version="1.1" xmlns="http://www.w3.org/2000/svg" xmlns:xlink="http://www.w3.org/1999/xlink" x="0px" y="0px"
	 viewBox="0 0 72 72" style="enable-background:new 0 0 72 72;" xml:space="preserve">
<style type="text/css">
	.st0{display:none;}
	.st1{fill:#FFFFFF;stroke:#454E5D;stroke-width:1.5;stroke-linecap:round;stroke-linejoin:round;stroke-miterlimit:10;}
	.st2{fill:#3892D0;stroke:#454E5D;stroke-miterlimit:10;}
	.st3{fill:#EA1587;stroke:#454E5D;stroke-linecap:round;stroke-linejoin:round;stroke-miterlimit:10;}
	.st4{fill:#FBEE1E;stroke:#454E5D;stroke-linecap:round;stroke-linejoin:round;stroke-miterlimit:10;}
	.st5{fill:#FBEE1E;stroke:#454E5D;stroke-width:1.25;stroke-linecap:round;stroke-linejoin:round;stroke-miterlimit:10;}
	.st6{fill:#029F4A;stroke:#454E5D;stroke-width:0.5;stroke-linecap:round;stroke-linejoin:round;stroke-miterlimit:10;}
	.st7{fill:#FFFFFF;}
	.st8{fill:#E53128;stroke:#454E5D;stroke-linecap:round;stroke-linejoin:round;stroke-miterlimit:10;}
	.st9{fill:#3892D0;}
	.st10{fill:#454E5D;}
	.st11{fill:#029F4A;stroke:#454E5D;stroke-linecap:round;stroke-linejoin:round;stroke-miterlimit:10;}
	.st12{fill:#C2C4C5;stroke:#454E5D;stroke-linecap:round;stroke-linejoin:round;stroke-miterlimit:10;}
	.st13{fill:#FBEE1E;}
	.st14{fill:none;stroke:#FFFFFF;stroke-width:2;stroke-linecap:round;stroke-linejoin:round;stroke-miterlimit:10;}
	.st15{fill:#939598;stroke:#454E5D;stroke-linecap:round;stroke-linejoin:round;stroke-miterlimit:10;}
	.st16{fill:#3892D0;stroke:#454E5D;stroke-width:0.75;stroke-miterlimit:10;}
	.st17{fill:#D1D3D4;stroke:#454E5D;stroke-width:0.75;stroke-linecap:round;stroke-linejoin:round;stroke-miterlimit:10;}
	.st18{fill:#FFFFFF;stroke:#454E5D;stroke-width:0.5;stroke-linecap:round;stroke-linejoin:round;stroke-miterlimit:10;}
	.st19{fill:#58595B;}
	.st20{fill:#3892D0;stroke:#454E5D;stroke-linecap:round;stroke-linejoin:round;stroke-miterlimit:10;}
	.st21{fill:#029F4A;stroke:#454E5D;stroke-miterlimit:10;}
	.st22{fill:#6D6E71;stroke:#454E5D;stroke-linecap:round;stroke-linejoin:round;stroke-miterlimit:10;}
	.st23{fill:#FFFFFF;stroke:#454E5D;stroke-width:0.75;stroke-linecap:round;stroke-linejoin:round;stroke-miterlimit:10;}
</style>
<g id="Reference" class="st0">
</g>
<g id="Artwork">
	<g>
		<g>
			<circle class="st1" cx="36" cy="36" r="22.7"/>
			<circle class="st8" cx="36" cy="36" r="19.2"/>
		</g>
		<g>
			<path class="st9" d="M44.5,37.1c2,0,3.6,2.2,3.6,4.9c0-2.7,1.6-4.9,3.6-4.9c-2,0-3.6-2.2-3.6-4.9C48.1,34.9,46.5,37.1,44.5,37.1z
				"/>
			<g>
				<path class="st10" d="M44.5,37.1c0.6-0.2,1.2-0.1,1.8,0.2c0.6,0.3,1,0.7,1.4,1.3c0.7,1,0.9,2.3,0.5,3.5
					c-0.4-1.1-0.8-2.1-1.3-2.9c-0.3-0.4-0.6-0.8-1-1.1C45.5,37.6,45,37.4,44.5,37.1z"/>
			</g>
			<g>
				<path class="st10" d="M51.7,37.1c-0.6,0.2-1.2,0.1-1.8-0.2c-0.6-0.3-1-0.7-1.4-1.3c-0.7-1-0.9-2.3-0.5-3.5
					c0.4,1.1,0.8,2.1,1.3,2.9c0.3,0.4,0.6,0.8,1,1.1C50.7,36.6,51.2,36.9,51.7,37.1z"/>
			</g>
			<g>
				<path class="st10" d="M48.1,32.2c0.4,1.1,0.2,2.4-0.5,3.5c-0.3,0.5-0.8,1-1.4,1.3c-0.6,0.3-1.2,0.4-1.8,0.2
					c0.6-0.2,1-0.5,1.4-0.8c0.4-0.3,0.7-0.7,1-1.1C47.4,34.3,47.7,33.4,48.1,32.2z"/>
			</g>
			<g>
				<path class="st10" d="M48.1,42c-0.4-1.1-0.2-2.4,0.5-3.5c0.3-0.5,0.8-1,1.4-1.3c0.6-0.3,1.2-0.4,1.8-0.2c-0.6,0.2-1,0.5-1.4,0.8
					c-0.4,0.3-0.7,0.7-1,1.1C48.9,40,48.5,40.9,48.1,42z"/>
			</g>
		</g>
		<g>
			<path class="st9" d="M23.2,44c2.8,0,5.1,3.1,5.1,6.9c0-3.8,2.3-6.9,5.1-6.9c-2.8,0-5.1-3.1-5.1-6.9C28.4,40.9,26.1,44,23.2,44z"
				/>
			<g>
				<path class="st10" d="M23.2,44c0.8-0.2,1.7,0,2.4,0.4c0.8,0.4,1.4,1,1.8,1.7c0.9,1.4,1.2,3.2,0.8,4.8c-0.4-1.6-0.9-3-1.7-4.2
					C25.9,45.4,24.8,44.4,23.2,44z"/>
			</g>
			<g>
				<path class="st10" d="M33.5,44c-0.8,0.2-1.7,0-2.4-0.4c-0.8-0.4-1.4-1-1.8-1.7c-0.9-1.4-1.2-3.2-0.8-4.8c0.4,1.6,0.9,3,1.7,4.2
					C30.8,42.6,31.9,43.6,33.5,44z"/>
			</g>
			<g>
				<path class="st10" d="M28.4,37.1c0.4,1.6,0.1,3.3-0.8,4.8c-0.5,0.7-1.1,1.3-1.8,1.7C24.9,44,24,44.2,23.2,44
					c1.6-0.4,2.6-1.4,3.4-2.7C27.5,40.1,27.9,38.7,28.4,37.1z"/>
			</g>
			<g>
				<path class="st10" d="M28.4,50.9c-0.4-1.6-0.1-3.3,0.8-4.8c0.5-0.7,1.1-1.3,1.8-1.7c0.7-0.4,1.6-0.6,2.4-0.4
					c-1.6,0.4-2.6,1.4-3.4,2.7C29.2,47.9,28.8,49.3,28.4,50.9z"/>
			</g>
		</g>
		<g>
			<path class="st11" d="M9.2,37.3l4.1,5.1l-5.8,3.2l-1.7-3.1L9.2,37.3z M13.2,45.5l2,2.7L23,35.1l-1.5-3L13.2,45.5z"/>
			<polygon class="st12" points="5.8,42.5 2.7,36.1 7.5,33.6 5.6,28.8 21.5,32.1 13.2,45.5 10.3,40.2 			"/>
		</g>
		<g>
			<g>
				<path class="st13" d="M41.4,56c-2.8,0-5.1-2.3-5.1-5.1c0-1.4,0.5-2.7,1.5-3.7s2.3-1.5,3.6-1.5c2.9,0,5.2,2.3,5.2,5.1
					C46.6,53.7,44.3,56,41.4,56L41.4,56z"/>
				<path class="st10" d="M41.4,45.1v1.2c2.5,0,4.5,2,4.5,4.5c0,1.2-0.5,2.3-1.3,3.2c-0.8,0.9-2,1.3-3.2,1.3c-2.5,0-4.5-2-4.5-4.5
					c0-1.2,0.5-2.3,1.3-3.2c0.8-0.9,2-1.3,3.2-1.3L41.4,45.1 M41.4,45.1C41.4,45.1,41.4,45.1,41.4,45.1c-3.2,0-5.8,2.6-5.8,5.8
					c0,3.2,2.6,5.7,5.8,5.7c0,0,0,0,0,0c3.2,0,5.8-2.6,5.7-5.8C47.2,47.7,44.6,45.1,41.4,45.1L41.4,45.1z"/>
			</g>
			<g>
				<g>
					<path class="st13" d="M38,43.9c-2.2,0-4.1-1.5-4.6-3.7c-1.1-4.9,0.9-8.8,2.5-11.9c1.7-3.4,2.6-5.3,1.6-8.1
						c-0.8-2.1-3.2-3.3-4.7-3.3c-0.1,0-0.2,0-0.3,0C32,17,30.4,17.2,29,18.4c-1.2,1-1.8,2.2-2,4c-0.2,2.2-1.8,3.9-4,4.2
						c-0.2,0-0.5,0.1-0.7,0.1c-0.1,0-0.3,0-0.4,0c-2.6-0.2-4.5-2.6-4.3-5.2C18,17.2,19.8,13.5,23,11c3.1-2.5,6.6-3.3,8.3-3.5
						c0.5-0.1,0.9-0.1,1.4-0.1c2.5,0,5,0.7,7.3,2.1c2.9,1.8,5.2,4.4,6.3,7.4c2.4,6.7-0.2,11.8-2.1,15.6c-1.3,2.6-2,4.1-1.7,5.5
						c0.3,1.2,0.1,2.5-0.6,3.6s-1.7,1.8-3,2.1c-0.1,0-0.2,0-0.3,0.1C38.4,43.8,38.2,43.9,38,43.9z"/>
					<path class="st10" d="M32.8,8c2.3,0,4.8,0.7,7,2c2.8,1.7,5,4.2,6,7.1c2.3,6.5-0.1,11.2-2,15.1c-1.2,2.4-2.1,4.2-1.7,5.9
						c0.2,1.1,0.1,2.2-0.5,3.1c-0.6,0.9-1.5,1.6-2.6,1.8c-0.1,0-0.2,0-0.3,0.1c-0.2,0-0.4,0.1-0.6,0.1c-1.9,0-3.6-1.3-4-3.2
						c-1.1-4.6,0.8-8.3,2.4-11.5c1.6-3.1,2.8-5.4,1.6-8.5c-0.9-2.4-3.6-3.7-5.2-3.7c-0.1,0-0.2,0-0.3,0c-0.5,0.1-2.3,0.4-3.8,1.6
						c-1.3,1.1-2,2.5-2.2,4.4c-0.2,1.9-1.6,3.4-3.5,3.7c-0.2,0-0.4,0.1-0.6,0.1c-0.1,0-0.3,0-0.4,0c-2.3-0.2-3.9-2.2-3.7-4.5
						c0.4-4.1,2.2-7.6,5.2-10.1c3-2.4,6.3-3.1,8-3.3C31.9,8.1,32.3,8,32.8,8 M32.8,6.8c-0.5,0-1,0-1.5,0.1c-1.8,0.2-5.4,1-8.6,3.6
						c-3.3,2.7-5.3,6.5-5.7,10.9c-0.3,3,1.9,5.6,4.8,5.8c0.2,0,0.3,0,0.5,0c0.3,0,0.6,0,0.8-0.1c2.4-0.4,4.3-2.3,4.5-4.8
						c0.1-1.6,0.7-2.7,1.8-3.6c1.2-1,2.8-1.3,3.2-1.3c0.1,0,0.1,0,0.2,0c1.1,0,3.4,1,4.1,2.9c0.9,2.5,0.1,4.2-1.6,7.6
						c-1.6,3.2-3.7,7.3-2.5,12.4c0.6,2.5,2.8,4.2,5.2,4.2c0.3,0,0.6,0,0.8-0.1c0.1,0,0.2,0,0.4-0.1c2.9-0.7,4.7-3.5,4-6.4
						c-0.3-1.2,0.4-2.7,1.6-5.1c1.9-3.8,4.6-9.1,2.1-16.1c-1.1-3.2-3.5-5.9-6.5-7.8C38,7.5,35.3,6.8,32.8,6.8L32.8,6.8z"/>
				</g>
			</g>
		</g>
		<g>
			<path class="st9" d="M51.7,13.3c2.9,0,5.2,3.1,5.2,7c0-3.9,2.3-7,5.2-7c-2.9,0-5.2-3.1-5.2-7C56.9,10.2,54.6,13.3,51.7,13.3z"/>
			<g>
				<path class="st10" d="M51.7,13.3c0.8-0.2,1.7,0,2.5,0.4c0.8,0.4,1.4,1.1,1.9,1.8c0.9,1.4,1.2,3.2,0.8,4.8
					c-0.4-1.6-0.9-3-1.7-4.3C54.4,14.8,53.3,13.7,51.7,13.3z"/>
			</g>
			<g>
				<path class="st10" d="M62.1,13.3c-0.8,0.2-1.7,0-2.5-0.4c-0.8-0.4-1.4-1.1-1.9-1.8c-0.9-1.4-1.2-3.2-0.8-4.8
					c0.4,1.6,0.9,3,1.7,4.3C59.4,11.9,60.5,12.9,62.1,13.3z"/>
			</g>
			<g>
				<path class="st10" d="M56.9,6.3c0.4,1.6,0.1,3.4-0.8,4.8c-0.5,0.7-1.1,1.4-1.9,1.8c-0.8,0.4-1.7,0.6-2.5,0.4
					c1.6-0.4,2.7-1.4,3.5-2.7C56,9.4,56.5,7.9,56.9,6.3z"/>
			</g>
			<g>
				<path class="st10" d="M56.9,20.3c-0.4-1.6-0.1-3.4,0.8-4.8c0.5-0.7,1.1-1.4,1.9-1.8c0.8-0.4,1.7-0.6,2.5-0.4
					c-1.6,0.4-2.7,1.4-3.5,2.7C57.8,17.3,57.3,18.7,56.9,20.3z"/>
			</g>
		</g>
		<path class="st14" d="M24,14.3c3-2.8,5.5-3.6,8.6-3.6"/>
	</g>
</g>
</svg>
