<svg class="popupconf-logo" xmlns="http://www.w3.org/2000/svg" viewBox="0 0 375 120">
  <style>
    .background { fill: #333; }
    .outline { fill: #18b6c5; }
    .text { fill: #FFF; }
  </style>
  <g class="background">
      <path d="M170.6 0c-33 0-59.9 26.9-59.9 60s26.9 60 59.9 60 59.9-26.9 59.9-60-26.9-60-59.9-60z"/>
      <path d="M358.4 96.4H9.1c-5.5 0-9.7-5-9-10.5L7.7 31c.6-4.6 4.5-7.9 9-7.9H366c5.5 0 9.7 5 9 10.5l-7.6 54.9c-.7 4.5-4.5 7.9-9 7.9z"/>
  </g>
  <g class="outline">
      <path d="M122.4 45.8c-1.4-3.2-3.8-5.9-7-7.6-2.9-1.6-6.1-2.4-9.7-2.4H97c-3 0-5.7 1-7.8 2.8-.8.7-1.5 1.5-2.1 2.5-1.5-1.5-3.3-2.8-5.3-3.7-2.9-1.4-6.2-2.1-9.7-2.1-3.4 0-6.7.6-9.8 1.9-2.8 1.1-5.4 2.7-7.7 4.8-1.2-1.5-2.8-2.7-4.5-3.7-2.9-1.6-6.1-2.4-9.7-2.4h-8.7c-3 0-5.7 1-7.8 2.8-2.1 1.8-3.4 4.2-3.9 7.1l-4.8 27.7c-.6 3.3.2 6.4 2.2 8.8 2 2.3 4.8 3.6 8 3.6 2.8 0 5.4-.9 7.5-2.7 2.1-1.8 3.5-4.2 4-7.2l.4-2.1c2.3-.1 4.5-.5 6.7-1.2.6-.2 1.2-.4 1.7-.7 0 .1.1.2.1.3 1.5 4.3 4 7.7 7.6 10.2 3.5 2.4 7.7 3.7 12.5 3.7 3.4 0 6.7-.6 9.8-1.9 2.2-.9 4.2-2.1 6.1-3.5.3.5.6 1 1 1.5 2 2.3 4.8 3.6 8 3.6 2.8 0 5.4-.9 7.5-2.7 2.1-1.8 3.5-4.2 4-7.2l.4-2.1c2.3-.1 4.5-.5 6.7-1.2 2.4-.8 4.6-2 6.5-3.5 2-1.5 3.6-3.4 5-5.6 1.4-2.2 2.3-4.7 2.8-7.4.4-3.8 0-7.3-1.3-10.4z"/>
      <path d="M170.6 19.8c22.1 0 40.2 18 40.2 40.2s-18 40.2-40.2 40.2-40.2-18-40.2-40.2 18-40.2 40.2-40.2m0-9.3c-27.3 0-49.4 22.1-49.4 49.5s22.1 49.5 49.4 49.5S220 87.3 220 60s-22.1-49.5-49.4-49.5z"/>
      <path d="M357.8 38.7c-1.8-2.6-4.8-4.2-8.2-4.2h-12.7c-2.6 0-4.9.8-6.9 2.2-1.9-1.6-4.3-2.5-7-2.5-2.8 0-5.4.9-7.5 2.7-1.9 1.6-3.3 3.8-3.9 6.3l-2.2-3.7c-.9-1.6-2.2-2.9-4-3.9-1.7-.9-3.4-1.4-5.2-1.4-2.8 0-5.4.9-7.5 2.7-1.1.9-2 2-2.7 3.3-1.6-1.7-3.6-3.1-5.8-4.2-2.9-1.4-6.2-2.1-9.7-2.1-3.4 0-6.7.6-9.8 1.9-2.7 1.1-5.2 2.6-7.4 4.5-.2-.3-.4-.5-.6-.8-1.4-1.7-3.1-2.9-5.2-3.8-1.5-.6-3.2-1.1-5-1.4-1.6-.2-3.1-.4-4.5-.4-3.4 0-6.7.6-9.8 1.9-3 1.2-5.8 3-8.2 5.2-2.4 2.2-4.4 4.8-6 7.7-1.6 2.9-2.7 6.1-3.3 9.4-.8 4.6-.5 8.9.8 12.8 1.5 4.3 4 7.7 7.6 10.2 3.5 2.4 7.7 3.7 12.5 3.7 2 0 4.1-.2 6.4-.7 2.6-.5 5-1.5 7.2-2.8 1.3-.8 2.4-1.8 3.3-2.9.9 1 2 1.9 3.1 2.7 3.5 2.4 7.7 3.7 12.5 3.7 3.4 0 6.7-.6 9.8-1.9 2.4-1 4.7-2.3 6.7-3.9.3.7.8 1.3 1.3 1.9 2 2.3 4.8 3.6 8 3.6 2.8 0 5.4-.9 7.5-2.7 1.9-1.6 3.2-3.8 3.8-6.3l2.2 3.8.3.4c1 1.4 2.2 2.5 3.8 3.4 1.6.9 3.3 1.4 5 1.4 2.6 0 5.1-.8 7.1-2.4 1.8 1.5 4.2 2.4 6.8 2.4 2.8 0 5.4-.9 7.5-2.7 2.1-1.8 3.5-4.2 4-7.2l.8-4.8h1.6c3 0 5.6-1 7.7-2.9 1.9-1.8 3.1-4 3.6-6.5.4-2.3.1-4.6-1-6.6.4-.3.8-.6 1.2-1 1.8-1.7 3-3.9 3.4-6.4.7-2.8.1-5.5-1.4-7.7z"/>
  </g>
  <g class="text">
      <path d="M141.2 64.2l3.1-17.6c.2-1.2.7-2.1 1.5-2.8.8-.7 1.8-1 2.9-1 1.1 0 2 .3 2.5 1 .6.7.8 1.6.5 2.8l-3 17.2c-.3 1.5-.2 2.9.2 4.1.4 1.2 1.1 2.2 2.2 2.9 1.1.7 2.3 1.1 3.9 1.1 2.2 0 4.2-.8 5.9-2.4 1.7-1.6 2.8-3.5 3.2-5.7l3-17.2c.2-1.2.7-2.1 1.5-2.8.8-.7 1.8-1 2.9-1 1.1 0 2 .3 2.5 1 .6.7.8 1.6.5 2.8l-3.1 17.6c-.4 2-1.1 3.9-2.2 5.7-1.1 1.8-2.5 3.3-4.1 4.7-1.6 1.3-3.4 2.4-5.4 3.1-2 .7-4 1.1-6.1 1.1-2.8 0-5.2-.6-7.3-1.9-2.1-1.3-3.6-3-4.6-5.2-.7-2.2-1-4.7-.5-7.5zM175.1 74.7L180 47c.2-1.2.7-2.1 1.5-2.8.8-.7 1.8-1 3.1-1h8.8c2.4 0 4.5.5 6.3 1.5s3.1 2.4 3.9 4.2c.8 1.8 1 3.8.6 6.1-.3 1.8-.9 3.4-1.8 4.8-.9 1.5-2 2.7-3.3 3.7-1.3 1-2.8 1.8-4.4 2.3-1.6.5-3.3.8-5 .8H184l-1.4 8.1c-.2 1.2-.7 2.2-1.5 2.8-.8.7-1.8 1-2.9 1-1.1 0-1.9-.3-2.5-1-.6-.7-.8-1.6-.6-2.8zM187 49.6L185.2 60h5.1c1.5 0 2.9-.5 4-1.5s1.8-2.2 2.1-3.8c.2-1 .1-1.9-.2-2.7-.3-.8-.8-1.4-1.5-1.9s-1.6-.7-2.6-.7H187zM21.5 74.7L26.4 47c.2-1.2.7-2.1 1.5-2.8.8-.7 1.8-1 3.1-1h8.8c2.4 0 4.5.5 6.3 1.5 1.8 1 3.1 2.4 3.9 4.2.8 1.8 1 3.8.6 6.1-.3 1.8-.9 3.4-1.8 4.8-.9 1.5-2 2.7-3.3 3.7-1.3 1-2.8 1.8-4.4 2.3-1.6.5-3.3.8-5 .8h-5.6l-1.4 8.1c-.2 1.2-.7 2.2-1.5 2.8-.8.7-1.8 1-2.9 1-1.1 0-1.9-.3-2.5-1-.7-.7-.9-1.6-.7-2.8zm12-25.1L31.6 60h5.1c1.5 0 2.9-.5 4-1.5s1.8-2.2 2.1-3.8c.2-1 .1-1.9-.2-2.7-.3-.8-.8-1.4-1.5-1.9s-1.6-.7-2.6-.7h-5zM65.6 78.8c-3.3 0-6.2-.8-8.5-2.4-2.3-1.6-4-3.8-5-6.6s-1.2-5.8-.6-9.2c.4-2.6 1.3-4.9 2.5-7.2s2.7-4.2 4.6-5.8c1.8-1.7 3.9-2.9 6.1-3.8 2.3-.9 4.7-1.4 7.2-1.4s4.7.5 6.7 1.4c2 .9 3.6 2.2 4.8 3.9 1.2 1.7 2.1 3.6 2.5 5.8.5 2.2.5 4.6 0 7.1-.4 2.5-1.3 4.9-2.5 7.1-1.2 2.2-2.7 4.1-4.6 5.8-1.9 1.7-3.9 3-6.2 3.9-2.1 1-4.5 1.4-7 1.4zm1.2-6.8c1.5 0 2.9-.3 4.2-.9 1.3-.6 2.4-1.4 3.4-2.5s1.8-2.3 2.4-3.6c.6-1.4 1.1-2.8 1.3-4.3.4-2.1.3-3.9-.1-5.7-.4-1.7-1.2-3.1-2.5-4.1-1.2-1-2.9-1.6-4.9-1.6-2 0-3.8.5-5.4 1.6-1.6 1-2.9 2.4-3.9 4.1-1 1.7-1.7 3.6-2.1 5.7-.6 3.2-.2 5.9 1 8.1 1.4 2.1 3.5 3.2 6.6 3.2zM87.7 74.7L92.6 47c.2-1.2.7-2.1 1.5-2.8.8-.7 1.8-1 3.1-1h8.8c2.4 0 4.5.5 6.3 1.5 1.8 1 3.1 2.4 3.9 4.2.8 1.8 1 3.8.6 6.1-.3 1.8-.9 3.4-1.8 4.8-.9 1.5-2 2.7-3.3 3.7-1.3 1-2.8 1.8-4.4 2.3-1.6.5-3.3.8-5 .8h-5.6l-1.4 8.1c-.2 1.2-.7 2.2-1.5 2.8-.8.7-1.8 1-2.9 1-1.1 0-1.9-.3-2.5-1-.7-.7-.9-1.6-.7-2.8zm11.9-25.1L97.8 60h5.1c1.5 0 2.9-.5 4-1.5s1.8-2.2 2.1-3.8c.2-1 .1-1.9-.2-2.7-.3-.8-.8-1.4-1.5-1.9s-1.6-.7-2.6-.7h-5.1z"/>
      <path d="M221.2 59.3c.5-2.6 1.3-4.9 2.5-7.2 1.2-2.2 2.7-4.2 4.6-5.8 1.8-1.7 3.9-2.9 6.1-3.8 2.3-.9 4.7-1.4 7.2-1.4 1 0 2.2.1 3.4.3 1.2.2 2.4.5 3.4.9s1.8 1 2.4 1.7c.6.7.8 1.6.6 2.7-.2.9-.6 1.7-1.3 2.3-.7.7-1.5 1-2.4 1-.5 0-1.3-.2-2.2-.6-.9-.4-1.7-.7-2.4-.9-.7-.2-1.6-.3-2.8-.3-1.5 0-2.9.3-4.2.9-1.3.6-2.4 1.4-3.4 2.4s-1.8 2.2-2.4 3.6c-.7 1.4-1.1 2.8-1.4 4.4-.5 3.1-.2 5.7 1.1 7.8 1.3 2.1 3.4 3.1 6.4 3.1 1.2 0 2.2-.1 3-.4.8-.2 1.7-.6 2.8-1 1.1-.4 1.9-.7 2.5-.7 1 0 1.8.4 2.2 1.1.5.8.6 1.5.5 2.2-.3 1.4-1.1 2.6-2.5 3.5-1.4.9-3 1.5-4.8 1.8-1.8.4-3.5.5-5 .5-3.3 0-6.2-.8-8.5-2.4-2.3-1.6-4-3.8-5-6.6-.8-2.6-1-5.7-.4-9.1zM268.1 77.5c-3.3 0-6.2-.8-8.5-2.4-2.3-1.6-4-3.8-5-6.6s-1.2-5.8-.6-9.2c.5-2.6 1.3-4.9 2.5-7.2 1.2-2.2 2.7-4.2 4.6-5.8 1.8-1.7 3.9-2.9 6.1-3.8 2.3-.9 4.7-1.4 7.2-1.4s4.7.5 6.7 1.4c2 .9 3.6 2.2 4.8 3.9 1.2 1.7 2.1 3.6 2.5 5.8.5 2.2.5 4.6 0 7.1-.4 2.5-1.3 4.9-2.5 7.1-1.2 2.2-2.7 4.1-4.6 5.8-1.9 1.7-3.9 3-6.2 3.9-2.1.9-4.5 1.4-7 1.4zm1.2-6.8c1.5 0 2.9-.3 4.2-.9 1.3-.6 2.4-1.4 3.4-2.5s1.8-2.3 2.4-3.6c.6-1.4 1.1-2.8 1.3-4.3.4-2.1.3-3.9-.1-5.7-.4-1.7-1.2-3.1-2.5-4.1-1.2-1-2.9-1.6-4.9-1.6s-3.8.5-5.4 1.6c-1.6 1-2.9 2.4-3.9 4.1-1 1.7-1.7 3.6-2.1 5.7-.6 3.2-.2 5.9 1 8.1 1.4 2.1 3.5 3.2 6.6 3.2zM291.1 73.4l4.9-28c.2-1.2.7-2.1 1.5-2.8.8-.7 1.8-1 2.9-1 .5 0 1.1.2 1.7.5.6.3 1 .7 1.2 1.1L315.5 64h.1l3.3-18.7c.2-1.2.7-2.1 1.5-2.8.8-.7 1.8-1 2.9-1 1.1 0 2 .3 2.5 1 .6.7.8 1.6.5 2.8l-4.9 28c-.2 1.2-.7 2.2-1.5 2.8-.8.7-1.8 1-2.9 1-.5 0-1-.2-1.5-.5-.6-.3-1-.7-1.3-1.1L302 54.9h-.1l-3.2 18.4c-.2 1.2-.7 2.2-1.5 2.8-.8.7-1.8 1-2.9 1-1.1 0-1.9-.3-2.5-1-.7-.6-.9-1.5-.7-2.7zM327.9 73.4l4.9-27.7c.2-1 .7-1.9 1.5-2.7.8-.8 1.9-1.1 3-1.1h12.8c1.1 0 1.8.3 2.3 1 .5.7.6 1.5.5 2.4s-.6 1.7-1.3 2.4c-.7.7-1.6 1-2.6 1h-9.2l-1.3 7.2h7.8c1.2 0 2 .3 2.5 1s.7 1.5.5 2.4c-.2.9-.6 1.7-1.4 2.4-.7.7-1.7 1-2.8 1h-7.8l-1.9 10.8c-.2 1.2-.7 2.2-1.5 2.8-.8.7-1.8 1-2.9 1-1.1 0-1.9-.3-2.5-1-.6-.8-.8-1.8-.6-2.9z"/>
  </g>
</svg>
