<?xml version="1.0" encoding="utf-8"?>
<!-- Generator: Adobe Illustrator 21.1.0, SVG Export Plug-In . SVG Version: 6.00 Build 0)  -->
<svg version="1.1" xmlns="http://www.w3.org/2000/svg" xmlns:xlink="http://www.w3.org/1999/xlink" x="0px" y="0px"
	 viewBox="0 0 72 72" style="enable-background:new 0 0 72 72;" xml:space="preserve">
<style type="text/css">
	.st0{display:none;}
	.st1{fill:#FFFFFF;stroke:#454E5D;stroke-width:1.5;stroke-linecap:round;stroke-linejoin:round;stroke-miterlimit:10;}
	.st2{fill:#3892D0;stroke:#454E5D;stroke-miterlimit:10;}
	.st3{fill:#EA1587;stroke:#454E5D;stroke-linecap:round;stroke-linejoin:round;stroke-miterlimit:10;}
	.st4{fill:#FBEE1E;stroke:#454E5D;stroke-linecap:round;stroke-linejoin:round;stroke-miterlimit:10;}
	.st5{fill:#FBEE1E;stroke:#454E5D;stroke-width:1.25;stroke-linecap:round;stroke-linejoin:round;stroke-miterlimit:10;}
	.st6{fill:#029F4A;stroke:#454E5D;stroke-width:0.5;stroke-linecap:round;stroke-linejoin:round;stroke-miterlimit:10;}
	.st7{fill:#FFFFFF;}
	.st8{fill:#E53128;stroke:#454E5D;stroke-linecap:round;stroke-linejoin:round;stroke-miterlimit:10;}
	.st9{fill:#3892D0;}
	.st10{fill:#454E5D;}
	.st11{fill:#029F4A;stroke:#454E5D;stroke-linecap:round;stroke-linejoin:round;stroke-miterlimit:10;}
	.st12{fill:#C2C4C5;stroke:#454E5D;stroke-linecap:round;stroke-linejoin:round;stroke-miterlimit:10;}
	.st13{fill:#FBEE1E;}
	.st14{fill:none;stroke:#FFFFFF;stroke-width:2;stroke-linecap:round;stroke-linejoin:round;stroke-miterlimit:10;}
	.st15{fill:#939598;stroke:#454E5D;stroke-linecap:round;stroke-linejoin:round;stroke-miterlimit:10;}
	.st16{fill:#3892D0;stroke:#454E5D;stroke-width:0.75;stroke-miterlimit:10;}
	.st17{fill:#D1D3D4;stroke:#454E5D;stroke-width:0.75;stroke-linecap:round;stroke-linejoin:round;stroke-miterlimit:10;}
	.st18{fill:#FFFFFF;stroke:#454E5D;stroke-width:0.5;stroke-linecap:round;stroke-linejoin:round;stroke-miterlimit:10;}
	.st19{fill:#58595B;}
	.st20{fill:#3892D0;stroke:#454E5D;stroke-linecap:round;stroke-linejoin:round;stroke-miterlimit:10;}
	.st21{fill:#029F4A;stroke:#454E5D;stroke-miterlimit:10;}
	.st22{fill:#6D6E71;stroke:#454E5D;stroke-linecap:round;stroke-linejoin:round;stroke-miterlimit:10;}
	.st23{fill:#FFFFFF;stroke:#454E5D;stroke-width:0.75;stroke-linecap:round;stroke-linejoin:round;stroke-miterlimit:10;}
	.st24{display:inline;}
	.st25{fill:#FFFFFF;stroke:#FFFFFF;stroke-width:1.2777;stroke-linecap:round;stroke-linejoin:round;stroke-miterlimit:10;}
	.st26{fill:none;stroke:#FFFFFF;stroke-width:1.2122;stroke-linecap:round;stroke-linejoin:round;stroke-miterlimit:10;}
</style>
<g id="Reference" class="st0">
</g>
<g id="Artwork">
	<g>
		<g>
			<circle class="st1" cx="36" cy="36" r="22.7"/>
			<circle class="st2" cx="36" cy="36" r="19.2"/>
		</g>
		<g>
			<polygon class="st3" points="9.9,29.5 9.6,32.6 15.4,37.1 10.9,38.9 10.4,41.7 24.4,41.9 25,39.3 13.5,29.5 			"/>
			<polygon class="st4" points="9.9,29.5 15.3,23.9 20.3,27.9 24.1,24 25,39.3 10.9,38.9 15.1,34.4 			"/>
		</g>
		<path class="st5" d="M21.5,44.1l10.4,1.7l3.7-21.9l-8.7-1.4l1.2-7.1c5.2-0.1,8.8-0.7,12.4-2.2l8.4,1.4l-5.5,33.1l9.1,1.5l-1.5,9.2
			l-31-5.2L21.5,44.1z"/>
		<g>
			<path class="st6" d="M49.7,25.4l1-1.1c0.7,0.5,1.4,0.9,2.2,1c0.5,0.1,0.7,0,0.8-0.2c0-0.3-0.3-0.4-1.2-0.7
				c-1.5-0.6-2-1.3-1.9-2.2c0.2-1.1,1.3-1.7,3-1.5c1.1,0.2,1.9,0.7,2.4,1.2l-1,1c-0.5-0.4-1.2-0.7-1.8-0.8c-0.4-0.1-0.6,0-0.6,0.2
				c0,0.3,0.3,0.3,1.1,0.7c1.7,0.6,2.1,1.2,2,2.2c-0.2,1.1-1.3,1.8-3.2,1.5C51.4,26.5,50.4,26,49.7,25.4z"/>
			<path class="st6" d="M58.2,24.9l0.3-1.8l-1.4-0.2l0.2-1.5l1.5,0.1l0.5-1.7l1.6,0.2l-0.2,1.7l2.3,0.3l-0.2,1.5l-2.3-0.3l-0.3,1.7
				c-0.1,0.8,0.2,1.1,1,1.2c0.4,0.1,0.7,0,1.1,0l0.1,1.5c-0.5,0.1-1.2,0.1-2,0C58.5,27.5,58,26.4,58.2,24.9z"/>
		</g>
		<path class="st7" d="M30.5,18.1c1.1-0.2,2.1-0.3,3.1-0.5c1-0.2,2.1-0.4,3.1-0.7c1-0.2,1.9-0.7,3-0.8c1-0.1,2.1-0.3,3.2-0.1
			l0.1,0.2c-0.8,0.9-1.8,1.5-2.8,1.9c-1,0.4-2.2,0.4-3.2,0.5c-1.1,0.1-2.2,0.1-3.2,0.1c-1.1-0.1-2.1-0.1-3.2-0.3L30.5,18.1z"/>
	</g>
</g>
</svg>
