<?xml version="1.0" encoding="utf-8"?>
<!-- Generator: Adobe Illustrator 21.1.0, SVG Export Plug-In . SVG Version: 6.00 Build 0)  -->
<svg version="1.1" xmlns="http://www.w3.org/2000/svg" xmlns:xlink="http://www.w3.org/1999/xlink" x="0px" y="0px"
	 viewBox="0 0 72 72" style="enable-background:new 0 0 72 72;" xml:space="preserve">
<style type="text/css">
	.st0{display:none;}
	.st1{fill:#FFFFFF;stroke:#454E5D;stroke-width:1.5;stroke-linecap:round;stroke-linejoin:round;stroke-miterlimit:10;}
	.st2{fill:#3892D0;stroke:#454E5D;stroke-miterlimit:10;}
	.st3{fill:#EA1587;stroke:#454E5D;stroke-linecap:round;stroke-linejoin:round;stroke-miterlimit:10;}
	.st4{fill:#FBEE1E;stroke:#454E5D;stroke-linecap:round;stroke-linejoin:round;stroke-miterlimit:10;}
	.st5{fill:#FBEE1E;stroke:#454E5D;stroke-width:1.25;stroke-linecap:round;stroke-linejoin:round;stroke-miterlimit:10;}
	.st6{fill:#029F4A;stroke:#454E5D;stroke-width:0.5;stroke-linecap:round;stroke-linejoin:round;stroke-miterlimit:10;}
	.st7{fill:#FFFFFF;}
	.st8{fill:#E53128;stroke:#454E5D;stroke-linecap:round;stroke-linejoin:round;stroke-miterlimit:10;}
	.st9{fill:#3892D0;}
	.st10{fill:#454E5D;}
	.st11{fill:#029F4A;stroke:#454E5D;stroke-linecap:round;stroke-linejoin:round;stroke-miterlimit:10;}
	.st12{fill:#C2C4C5;stroke:#454E5D;stroke-linecap:round;stroke-linejoin:round;stroke-miterlimit:10;}
	.st13{fill:#FBEE1E;}
	.st14{fill:none;stroke:#FFFFFF;stroke-width:2;stroke-linecap:round;stroke-linejoin:round;stroke-miterlimit:10;}
	.st15{fill:#939598;stroke:#454E5D;stroke-linecap:round;stroke-linejoin:round;stroke-miterlimit:10;}
	.st16{fill:#3892D0;stroke:#454E5D;stroke-width:0.75;stroke-miterlimit:10;}
	.st17{fill:#D1D3D4;stroke:#454E5D;stroke-width:0.75;stroke-linecap:round;stroke-linejoin:round;stroke-miterlimit:10;}
	.st18{fill:#FFFFFF;stroke:#454E5D;stroke-width:0.5;stroke-linecap:round;stroke-linejoin:round;stroke-miterlimit:10;}
	.st19{fill:#58595B;}
	.st20{fill:#3892D0;stroke:#454E5D;stroke-linecap:round;stroke-linejoin:round;stroke-miterlimit:10;}
	.st21{fill:#029F4A;stroke:#454E5D;stroke-miterlimit:10;}
	.st22{fill:#6D6E71;stroke:#454E5D;stroke-linecap:round;stroke-linejoin:round;stroke-miterlimit:10;}
	.st23{fill:#FFFFFF;stroke:#454E5D;stroke-width:0.75;stroke-linecap:round;stroke-linejoin:round;stroke-miterlimit:10;}
	.st24{display:inline;}
	.st25{fill:#FFFFFF;stroke:#FFFFFF;stroke-width:1.2777;stroke-linecap:round;stroke-linejoin:round;stroke-miterlimit:10;}
	.st26{fill:none;stroke:#FFFFFF;stroke-width:1.2122;stroke-linecap:round;stroke-linejoin:round;stroke-miterlimit:10;}
</style>
<g id="Reference" class="st0">
</g>
<g id="Artwork">
	<g>
		<g>
			<g>
				<path class="st1" d="M30.2,12.6L7.5,51.9C4.9,56.4,8.1,62,13.3,62h45.3c5.2,0,8.4-5.6,5.8-10.1L41.8,12.6
					C39.2,8.2,32.8,8.2,30.2,12.6z"/>
				<path class="st21" d="M32.9,15.8l-21.4,37c-1.4,2.4,0.3,5.3,3.1,5.3h42.7c2.7,0,4.4-3,3.1-5.3l-21.4-37
					C37.7,13.4,34.3,13.4,32.9,15.8z"/>
			</g>
			<polygon class="st15" points="9.3,49.4 21.3,37.5 53.9,45.1 43.1,58.3 			"/>
			<g>
				<polygon class="st22" points="53.9,49.5 43.1,62.4 9.3,53.3 9.3,49.4 43.1,58.3 53.9,45.1 				"/>
				<line class="st22" x1="43.1" y1="58.3" x2="43.1" y2="62.4"/>
			</g>
			<polygon class="st15" points="26.2,18 59.9,21.9 53.9,45.1 21.3,37.5 			"/>
			<polygon class="st20" points="29.3,20.9 55.1,24.3 51.2,40.1 25.2,35.1 			"/>
			<g>
				<polygon class="st23" points="44.9,52.2 17.2,46.1 22.5,40.1 50.1,46.2 				"/>
				<line class="st18" x1="48.7" y1="47.9" x2="21" y2="41.8"/>
				<line class="st18" x1="46.9" y1="49.9" x2="19.2" y2="43.8"/>
				<line class="st18" x1="19.9" y1="46.7" x2="25.2" y2="40.7"/>
				<line class="st18" x1="24.6" y1="47.7" x2="29.9" y2="41.8"/>
				<line class="st18" x1="29.7" y1="48.8" x2="35" y2="42.9"/>
				<line class="st18" x1="34.5" y1="49.9" x2="39.7" y2="43.9"/>
				<line class="st18" x1="40.5" y1="51.2" x2="45.8" y2="45.3"/>
			</g>
			<polygon class="st23" points="24.6,49.1 32.8,51 30.5,53.6 22.3,51.5 			"/>
		</g>
		<g>
			<polygon class="st11" points="9.9,38.2 9.7,38.6 9.7,41.3 21.8,36.8 21.8,34 7.8,31 3.8,32.4 3.8,35.9 			"/>
			<polygon class="st4" points="3.8,32.4 9.1,21.9 15.7,25.2 17.2,22.7 21.8,34 9.7,38.6 11,35.8 			"/>
		</g>
	</g>
</g>
</svg>
